<svg width="218" height="100" viewBox="0 0 218 100" fill="none" xmlns="http://www.w3.org/2000/svg">
<g clip-path="url(#clip0_1684_2139)">
<path d="M3.43348 96.08C3.43348 96.08 3.39575 96.3439 3.39575 96.5323C3.39575 96.8716 3.47121 97.1354 3.65986 97.2862C3.8485 97.437 4.15034 97.4747 4.56536 97.4747H5.65951L5.24449 99.8493H3.81077C2.79208 99.8493 1.99977 99.6232 1.43383 99.2085C0.867887 98.7939 0.603782 98.1154 0.603782 97.1354C0.603782 96.7962 0.641511 96.4192 0.716969 96.0046L1.54701 91.293H0.0378418L0.452864 88.956H1.96204L2.41479 86.2798H5.20676L4.75401 88.956H7.13095L6.71593 91.293H4.30125L3.47121 96.0423L3.43348 96.08Z" fill="white"/>
<path d="M17.5442 89.4835C18.2988 89.0688 19.0533 88.8804 19.9211 88.8804L19.3929 91.8204H18.6006C16.5632 91.8204 15.3936 92.7628 15.0918 94.6474L14.1863 99.8868H11.3943L13.3185 89.0311H16.0727L15.6954 91.1043C16.2236 90.4258 16.865 89.8604 17.5819 89.4835H17.5442Z" fill="white"/>
<path d="M31.8436 89.5588C32.4473 90.0112 32.8246 90.5766 32.9378 91.2927L33.3528 89.0311H36.107L34.1828 99.8868H31.4286L31.8436 97.6252C31.4286 98.379 30.8627 98.9445 30.1458 99.3591C29.4289 99.8114 28.5989 99.9999 27.6557 99.9999C26.4483 99.9999 25.4674 99.6229 24.7505 98.8691C24.0337 98.1152 23.6941 97.0598 23.6941 95.7028C23.6941 95.1751 23.7318 94.6851 23.845 94.1951C24.0337 93.102 24.4109 92.1597 24.9769 91.3681C25.5428 90.5389 26.1842 89.9358 26.9765 89.5212C27.7689 89.1065 28.5989 88.8804 29.5044 88.8804C30.4476 88.8804 31.24 89.1065 31.8436 89.5212V89.5588ZM27.8443 92.1597C27.2029 92.7251 26.8256 93.4789 26.637 94.459C26.5992 94.8359 26.5615 95.0621 26.5615 95.2128C26.5615 95.9667 26.7879 96.5321 27.2029 96.9467C27.6179 97.3613 28.2216 97.5875 28.9385 97.5875C29.7685 97.5875 30.5231 97.3236 31.1645 96.7206C31.8059 96.1175 32.2209 95.4013 32.3718 94.4213C32.4096 94.082 32.4473 93.8182 32.4473 93.6674C32.4473 92.9135 32.2209 92.3481 31.8059 91.8958C31.3531 91.4435 30.7872 91.255 30.0703 91.255C29.2026 91.255 28.448 91.5189 27.8443 92.0843V92.1597Z" fill="white"/>
<path d="M45.464 97.0976L49.6519 89.0312H52.5948L46.6713 99.8869H43.3134L41.2383 89.0312H44.1812L45.5017 97.0976H45.464Z" fill="white"/>
<path d="M66.2151 90.0111C67.0074 90.7649 67.4225 91.745 67.4225 92.9888C67.4225 93.2904 67.4225 93.6296 67.3093 94.0442C67.2338 94.4212 67.1584 94.7604 67.0452 94.9866H59.0843C59.0843 94.9866 59.0465 95.3258 59.0465 95.6274C59.0465 96.3812 59.2352 96.9466 59.6502 97.2859C60.0652 97.6251 60.5557 97.8136 61.1971 97.8136C61.8385 97.8136 62.4045 97.6628 62.8949 97.3235C63.3854 96.9843 63.725 96.5697 63.9514 96.0797H66.8565C66.4415 97.2482 65.6869 98.1905 64.6305 98.9444C63.5741 99.6982 62.3667 100.037 60.9707 100.037C59.5748 100.037 58.4806 99.6605 57.6883 98.869C56.8582 98.1151 56.481 97.022 56.481 95.665C56.481 95.2504 56.5187 94.7981 56.5941 94.3458C56.7828 93.215 57.1978 92.2727 57.8015 91.4434C58.4052 90.6142 59.1597 90.0111 60.0652 89.5588C60.9707 89.1064 61.914 88.918 62.9704 88.918C64.3664 88.918 65.4983 89.2949 66.2906 90.0488L66.2151 90.0111ZM64.6682 93.0265C64.6682 92.3857 64.4796 91.8957 64.0645 91.5565C63.6495 91.2173 63.159 91.0665 62.5176 91.0665C61.7631 91.0665 61.0839 91.2926 60.518 91.745C59.9143 92.1973 59.537 92.8758 59.3107 93.7427H64.5928C64.6305 93.4788 64.6682 93.2527 64.6682 92.9888V93.0265Z" fill="white"/>
<path d="M77.5339 85.375L74.9684 99.8492H72.2141L74.7797 85.375H77.5339Z" fill="white"/>
<path d="M98.0208 89.8604C98.7754 90.5012 99.1904 91.4058 99.2659 92.5366H96.5494C96.5494 92.0089 96.3607 91.5943 95.9835 91.255C95.6062 90.9535 95.1157 90.8027 94.4366 90.8027C93.9461 90.8027 93.531 90.9158 93.2292 91.142C92.9274 91.3681 92.7765 91.6697 92.7765 92.0466C92.7765 92.4235 92.9651 92.7251 93.3424 92.9135C93.7197 93.102 94.2856 93.3282 95.078 93.5166C95.8325 93.7428 96.4362 93.9689 96.9267 94.1574C97.4172 94.3459 97.8322 94.6474 98.1718 95.062C98.5113 95.4767 98.7 95.9667 98.7 96.6075C98.7 96.8713 98.7 97.0975 98.6245 97.3613C98.4736 98.1529 98.0208 98.7937 97.2663 99.2837C96.5117 99.7737 95.5307 100.038 94.2856 100.038C92.8519 100.038 91.72 99.6983 90.8523 99.0575C89.9845 98.4167 89.5695 97.5121 89.5317 96.3813H92.2483C92.2105 96.909 92.3992 97.3236 92.8142 97.6252C93.2292 97.9267 93.7952 98.1152 94.512 98.1152C95.0402 98.1152 95.4175 98.0021 95.7194 97.776C96.0212 97.5498 96.1344 97.2483 96.1344 96.8713C96.1344 96.5698 96.0212 96.3436 95.8325 96.1552C95.6439 95.9667 95.3798 95.8159 95.078 95.7028C94.7761 95.5898 94.3611 95.4767 93.7952 95.2882C93.0406 95.0997 92.4369 94.8736 91.9841 94.6851C91.5314 94.4967 91.1164 94.1951 90.8145 93.8182C90.475 93.4412 90.3241 92.9512 90.3241 92.3104C90.3241 92.0843 90.3241 91.8581 90.3995 91.5943C90.5504 90.765 91.0032 90.1242 91.7578 89.6342C92.5124 89.1442 93.4933 88.8804 94.7384 88.8804C96.2098 88.8804 97.304 89.2196 98.0963 89.8604H98.0208Z" fill="white"/>
<path d="M113.301 89.4458C114.018 89.8227 114.584 90.3127 114.961 90.9912C115.339 91.6697 115.565 92.4612 115.565 93.4036C115.565 93.7805 115.527 94.2328 115.452 94.6851C115.263 95.7782 114.848 96.7206 114.244 97.5121C113.641 98.3037 112.886 98.9445 111.981 99.3591C111.075 99.8114 110.094 99.9999 109.038 99.9999C108.095 99.9999 107.227 99.8114 106.51 99.4721C105.793 99.0952 105.227 98.6052 104.812 97.889C104.397 97.2106 104.208 96.3813 104.208 95.439C104.208 95.0621 104.246 94.6097 104.322 94.1951C104.51 93.102 104.925 92.1597 105.529 91.3681C106.133 90.5389 106.925 89.9358 107.831 89.5212C108.736 89.1065 109.717 88.8804 110.773 88.8804C111.717 88.8804 112.547 89.0688 113.264 89.4081L113.301 89.4458ZM108.359 92.122C107.717 92.6497 107.302 93.4412 107.151 94.4967C107.114 94.7605 107.076 95.0244 107.076 95.3259C107.076 96.0798 107.302 96.6829 107.717 97.0598C108.132 97.4744 108.698 97.6629 109.34 97.6629C110.094 97.6629 110.811 97.399 111.453 96.8336C112.094 96.3059 112.509 95.5144 112.66 94.459C112.698 94.1951 112.735 93.9313 112.735 93.6297C112.735 92.8758 112.509 92.2728 112.094 91.8958C111.679 91.4812 111.113 91.2927 110.472 91.2927C109.717 91.2927 109 91.5566 108.359 92.122Z" fill="white"/>
<path d="M125.714 85.375L123.149 99.8492H120.394L122.96 85.375H125.714Z" fill="white"/>
<path d="M141.711 89.0312L139.825 99.8869H137.033L137.41 97.7384C136.995 98.4545 136.392 99.0199 135.675 99.4346C134.958 99.8492 134.166 100.038 133.298 100.038C132.241 100.038 131.411 99.7361 130.808 99.133C130.204 98.5299 129.902 97.663 129.902 96.5699C129.902 96.193 129.94 95.7783 130.015 95.3637L131.147 89.0689H133.901L132.845 95.0622C132.807 95.326 132.77 95.5522 132.77 95.7783C132.77 96.4191 132.958 96.9468 133.335 97.2861C133.713 97.6253 134.203 97.8138 134.845 97.8138C135.599 97.8138 136.278 97.5876 136.844 97.0599C137.41 96.5699 137.75 95.8537 137.938 94.9491L138.995 89.1066H141.749L141.711 89.0312Z" fill="white"/>
<path d="M150.012 96.08C150.012 96.08 149.974 96.3439 149.974 96.5323C149.974 96.8716 150.05 97.1354 150.238 97.2862C150.427 97.437 150.729 97.4747 151.144 97.4747H152.238L151.823 99.8493H150.389C149.37 99.8493 148.578 99.6232 148.012 99.2085C147.446 98.7939 147.182 98.1154 147.182 97.1354C147.182 96.7962 147.22 96.4192 147.295 96.0046L148.125 91.293H146.616L147.031 88.956H148.54L148.993 86.2798H151.785L151.332 88.956H153.709L153.294 91.293H150.88L150.05 96.0423L150.012 96.08Z" fill="white"/>
<path d="M162.576 89.0313L160.651 99.8869H157.897L159.821 89.0313H162.576ZM160.614 84.9227C160.991 84.5835 161.482 84.395 162.047 84.395C162.5 84.395 162.84 84.5081 163.104 84.7343C163.368 84.9604 163.481 85.262 163.481 85.6389C163.481 86.1666 163.293 86.5812 162.915 86.9205C162.538 87.2597 162.085 87.4105 161.482 87.4105C161.029 87.4105 160.651 87.2974 160.425 87.0712C160.161 86.8451 160.048 86.5435 160.048 86.2043C160.048 85.7143 160.236 85.262 160.614 84.9227Z" fill="white"/>
<path d="M176.498 89.4458C177.215 89.8227 177.781 90.3127 178.158 90.9912C178.535 91.6697 178.762 92.4612 178.762 93.4036C178.762 93.7805 178.724 94.2328 178.648 94.6851C178.46 95.7782 178.045 96.7206 177.441 97.5121C176.837 98.3037 176.083 98.9445 175.177 99.3591C174.272 99.8114 173.291 99.9999 172.234 99.9999C171.291 99.9999 170.423 99.8114 169.707 99.4721C168.99 99.0952 168.424 98.6052 168.009 97.889C167.594 97.2106 167.405 96.3813 167.405 95.439C167.405 95.0621 167.443 94.6097 167.518 94.1951C167.707 93.102 168.122 92.1597 168.726 91.3681C169.329 90.5389 170.122 89.9358 171.027 89.5212C171.933 89.1065 172.914 88.8804 173.97 88.8804C174.913 88.8804 175.743 89.0688 176.46 89.4081L176.498 89.4458ZM171.555 92.122C170.914 92.6497 170.499 93.4412 170.348 94.4967C170.31 94.7605 170.272 95.0244 170.272 95.3259C170.272 96.0798 170.499 96.6829 170.914 97.0598C171.329 97.4744 171.895 97.6629 172.536 97.6629C173.291 97.6629 174.008 97.399 174.649 96.8336C175.29 96.3059 175.705 95.5144 175.856 94.459C175.894 94.1951 175.932 93.9313 175.932 93.6297C175.932 92.8758 175.705 92.2728 175.29 91.8958C174.875 91.4812 174.309 91.2927 173.668 91.2927C172.914 91.2927 172.197 91.5566 171.555 92.122Z" fill="white"/>
<path d="M194.495 89.7849C195.099 90.388 195.4 91.2549 195.4 92.3857C195.4 92.8004 195.4 93.215 195.287 93.5919L194.155 99.8867H191.401L192.495 93.8935C192.533 93.6673 192.571 93.4411 192.571 93.215C192.571 92.5742 192.382 92.0465 192.005 91.7073C191.627 91.368 191.137 91.1796 190.458 91.1796C189.666 91.1796 188.986 91.4434 188.42 91.9334C187.854 92.4611 187.515 93.1773 187.326 94.1196V94.0442L186.308 99.8867H183.516L185.44 89.0311H188.194L187.817 91.2173C188.232 90.5011 188.798 89.898 189.515 89.5211C190.231 89.1064 191.024 88.918 191.892 88.918C192.948 88.918 193.816 89.2195 194.419 89.8226L194.495 89.7849Z" fill="white"/>
<path d="M209.021 89.8604C209.775 90.5012 210.19 91.4058 210.266 92.5366H207.549C207.549 92.0089 207.36 91.5943 206.983 91.255C206.606 90.9535 206.115 90.8027 205.436 90.8027C204.946 90.8027 204.531 90.9158 204.229 91.142C203.927 91.3681 203.776 91.6697 203.776 92.0466C203.776 92.4235 203.965 92.7251 204.342 92.9135C204.719 93.102 205.285 93.3282 206.078 93.5166C206.832 93.7428 207.436 93.9689 207.926 94.1574C208.417 94.3459 208.832 94.6474 209.171 95.062C209.511 95.4767 209.7 95.9667 209.7 96.6075C209.7 96.8713 209.7 97.0975 209.624 97.3613C209.473 98.1529 209.021 98.7937 208.266 99.2837C207.511 99.7737 206.53 100.038 205.285 100.038C203.852 100.038 202.72 99.6983 201.852 99.0575C200.984 98.4167 200.569 97.5121 200.531 96.3813H203.248C203.21 96.909 203.399 97.3236 203.814 97.6252C204.229 97.9267 204.795 98.1152 205.512 98.1152C206.04 98.1152 206.417 98.0021 206.719 97.776C207.021 97.5498 207.134 97.2483 207.134 96.8713C207.134 96.5698 207.021 96.3436 206.832 96.1552C206.644 95.9667 206.38 95.8159 206.078 95.7028C205.776 95.5898 205.361 95.4767 204.795 95.2882C204.04 95.0997 203.437 94.8736 202.984 94.6851C202.531 94.4967 202.116 94.1951 201.814 93.8182C201.475 93.4412 201.324 92.9512 201.324 92.3104C201.324 92.0843 201.324 91.8581 201.399 91.5943C201.55 90.765 202.003 90.1242 202.758 89.6342C203.512 89.1442 204.493 88.8804 205.738 88.8804C207.21 88.8804 208.304 89.2196 209.096 89.8604H209.021Z" fill="white"/>
<path d="M77.5714 23.5206L69.3841 70.1848C69.3086 70.5617 69.0068 70.8256 68.6295 70.8256H51.1986C50.7458 70.8256 50.3685 70.4109 50.444 69.9586L58.6313 23.2945C58.7067 22.9175 59.0085 22.6537 59.3858 22.6537H76.8545C77.3073 22.6537 77.6846 23.0683 77.6091 23.5206H77.5714ZM61.1968 5.5033C62.291 3.80711 63.8379 2.48785 65.7998 1.47013C67.7617 0.490107 69.95 -0.0375977 72.327 -0.0375977C75.2322 -0.0375977 77.4959 0.678573 79.156 2.14861C80.8161 3.58095 81.6461 5.46561 81.6461 7.7272C81.6461 9.72493 81.1179 11.5719 80.0238 13.2304C78.9296 14.8889 77.4205 16.2459 75.4963 17.2259C73.5721 18.2059 71.3838 18.7336 69.0068 18.7336C66.0639 18.7336 63.7247 18.0174 62.0646 16.5474C60.3668 15.1151 59.5368 13.2304 59.5368 10.9688C59.5368 8.97107 60.1027 7.12411 61.1968 5.46561V5.5033Z" fill="white"/>
<path d="M115.414 47.3801L128.732 70.7876H107.529L101.379 59.932L93.3423 70.7876H72.478L93.1537 45.4201L80.1748 22.6157H101.379L107.529 33.5467L115.64 22.6157H136.505L115.376 47.3801H115.414Z" fill="white"/>
<path d="M160.463 22.616L152.012 70.7879H133.034L141.485 22.616H160.463ZM143.937 5.5033C145.032 3.80711 146.579 2.48785 148.54 1.47013C150.502 0.490107 152.691 -0.0375977 155.068 -0.0375977C157.973 -0.0375977 160.237 0.678573 161.897 2.14861C163.557 3.58095 164.387 5.46561 164.387 7.7272C164.387 9.72494 163.859 11.5719 162.764 13.2304C161.67 14.8889 160.161 16.2459 158.237 17.2259C156.313 18.2059 154.124 18.7336 151.747 18.7336C148.805 18.7336 146.465 18.0174 144.805 16.5474C143.107 15.1151 142.277 13.2304 142.277 10.9688C142.277 8.97107 142.843 7.12411 143.937 5.46561V5.5033Z" fill="white"/>
<path d="M194.117 23.9726C196.343 25.2542 198.645 29.212 198.645 29.212C200.305 29.0612 198.23 23.068 199.852 22.6534C204.304 21.4849 214.152 22.6534 214.152 22.6534C216.566 22.6534 218.377 24.8019 217.962 27.1766L210.794 67.6213C210.454 69.4683 208.869 70.7876 206.983 70.7876C206.983 70.7876 194.721 71.2399 191.325 70.7876C189.665 70.5614 193.778 65.3221 192.533 64.229C192.004 63.7766 188.873 68.1867 186.383 69.4683C183.855 70.7499 181.063 71.3907 177.931 71.3907C172.876 71.3907 168.876 69.7322 166.009 66.4152C163.141 63.0982 161.708 58.4242 161.708 52.4687C161.708 50.3579 161.934 47.8701 162.387 45.0431C163.217 40.3315 164.802 36.2229 167.141 32.7552C169.48 29.2874 172.234 26.6489 175.517 24.8019C178.799 22.9926 182.233 22.0503 185.817 22.0503C189.175 22.0503 191.967 22.6911 194.193 23.9726H194.117ZM184.609 40.7461C183.025 42.1785 182.044 44.1762 181.553 46.7016C181.44 47.2293 181.402 47.9078 181.402 48.7748C181.402 50.6971 181.931 52.2048 182.949 53.2603C183.968 54.3157 185.364 54.8434 187.137 54.8434C189.175 54.8434 190.986 54.1272 192.57 52.6948C194.155 51.2625 195.136 49.2648 195.589 46.7016C195.702 46.2116 195.777 45.4955 195.777 44.6662C195.777 42.7439 195.249 41.2361 194.23 40.1807C193.212 39.1253 191.816 38.5976 190.042 38.5976C188.005 38.5976 186.194 39.3138 184.609 40.7461Z" fill="white"/>
<path d="M16.7141 10.4033H15.1294L23.5053 15.4542C23.5053 15.4542 33.1263 10.6672 35.7296 13.0041C38.333 15.3411 26.1087 21.3343 26.1087 21.3343C26.1087 21.3343 25.2031 29.1368 24.7504 30.7199C24.2599 32.3031 22.7885 32.19 22.7885 32.19L20.4115 23.219C20.4115 23.219 14.1107 26.9129 12.2243 40.9348C11.3942 47.1542 9.01727 65.85 9.01727 65.85C8.48906 68.7524 10.7528 71.4286 13.6957 71.4286H27.1651L35.2014 25.5937H51.425L54.1038 10.441H16.7141V10.4033Z" fill="white"/>
<path d="M2.67878 10.4033L0 25.556H8.79093C12.0734 20.2412 18.0723 18.8466 17.9214 18.1681C17.7328 17.2635 12.7148 11.6472 11.6206 10.4033H2.67878Z" fill="white"/>
</g>
<defs>
<clipPath id="clip0_1684_2139">
<rect width="218" height="100" fill="white"/>
</clipPath>
</defs>
</svg>
